<svg width="41" height="40" viewBox="0 0 41 40" fill="none" xmlns="http://www.w3.org/2000/svg">
<path d="M40.1685 0H10.6688C10.5324 0 10.4179 0.102775 10.4034 0.238295L9.19414 11.5298C9.18443 11.6205 9.2666 11.6939 9.35568 11.6742L39.9593 4.90342C40.0815 4.87639 40.1685 4.76813 40.1685 4.64306V0Z" fill="#1B2B49"/>
<path d="M8.10494 0.297533C8.12342 0.139097 7.99948 0 7.83984 0H0.132812V13.3821C0.132812 13.5526 0.290781 13.6793 0.457407 13.6425L6.43172 12.3207C6.59822 12.2839 6.72309 12.1457 6.74282 11.9765L8.10494 0.297533Z" fill="#9B9B9B"/>
<path d="M0.132812 28.0287C0.132812 28.1723 0.246578 28.2901 0.390181 28.2952L21.2247 29.0386C21.4023 29.045 21.5364 28.8794 21.4931 28.7071L17.3532 12.2505C17.3181 12.111 17.1786 12.0245 17.0379 12.0549L0.34319 15.6691C0.220416 15.6956 0.132812 15.8042 0.132812 15.9297V28.0287Z" fill="#1B2B49"/>
<path d="M24.1039 28.9504C24.1338 29.0643 24.2348 29.1451 24.3526 29.1493L39.8915 29.7038C40.0425 29.7091 40.1679 29.5883 40.1679 29.4373V7.18865C40.1679 7.01813 40.0099 6.89142 39.8433 6.92829L19.7757 11.368C19.6278 11.4007 19.5368 11.5496 19.5752 11.696L24.1039 28.9504Z" fill="#B7B7B7"/>
<path d="M26.8401 31.6353C26.9108 31.5504 26.8537 31.4214 26.7433 31.4167L0.411052 30.2971C0.259334 30.2907 0.132812 30.4118 0.132812 30.5635V39.9996H19.6764C19.7952 39.9996 19.9079 39.9468 19.9839 39.8556L26.8401 31.6353Z" fill="#595959"/>
<path d="M40.1676 32.2465C40.1676 32.1029 40.0538 31.9851 39.9102 31.98L30.3521 31.6389C30.2302 31.6346 30.1128 31.6861 30.0335 31.7788L23.1983 39.7692C23.1243 39.8557 23.1858 39.9891 23.2997 39.9891L40.1676 39.9892V32.2465Z" fill="#1B2B49"/>
</svg>
