<svg width="20" height="25" viewBox="0 0 20 25" fill="none" xmlns="http://www.w3.org/2000/svg">
<path d="M9.46816 24.3089C9.77685 24.5637 10.2227 24.5637 10.5314 24.3089C15.5096 20.1735 17.7292 16.3713 18.6945 14.088C18.9738 13.4853 19.1893 12.8483 19.3412 12.1868C19.3853 11.9908 19.4049 11.888 19.4049 11.888C19.5176 11.3 19.5764 10.6924 19.5764 10.0701C19.5715 4.67547 15.098 0.319563 9.65435 0.505755C4.88686 0.672348 0.92783 4.39128 0.46725 9.13917C0.374154 10.0897 0.428052 11.0109 0.594644 11.888C0.594644 11.888 0.609344 11.9908 0.658342 12.1868C0.805335 12.8483 1.02583 13.4853 1.30511 14.088C2.27037 16.3664 4.48508 20.1735 9.46816 24.3089ZM4.17149 10.1877C4.17149 6.97347 6.77818 4.36188 9.99734 4.36188C13.2165 4.36188 15.8232 6.96857 15.8232 10.1877C15.8232 13.4069 13.2116 16.0087 9.99734 16.0087C6.78308 16.0087 4.17149 13.402 4.17149 10.1877Z" fill="#1B2B49"/>
</svg>
