<svg width="22" height="23" viewBox="0 0 22 23" fill="none" xmlns="http://www.w3.org/2000/svg">
<path d="M20.2347 14.9405C18.8878 14.9405 17.5653 14.7298 16.312 14.3157C15.6979 14.1062 14.943 14.2984 14.5682 14.6833L12.0945 16.5507C9.22573 15.0193 7.45863 13.2528 5.94819 10.4056L7.76061 7.99633C8.23149 7.52608 8.40039 6.83915 8.19804 6.19462C7.7821 4.93478 7.57081 3.61289 7.57081 2.26539C7.57086 1.29194 6.77892 0.5 5.80554 0.5H1.76533C0.791943 0.5 0 1.29194 0 2.26533C0 13.4229 9.07718 22.5 20.2347 22.5C21.2081 22.5 22.0001 21.7081 22.0001 20.7347V16.7058C22 15.7324 21.2081 14.9405 20.2347 14.9405Z" fill="#1B2B49"/>
</svg>
